<mxfile host="app.diagrams.net" modified="2020-08-03T08:40:37.987Z" agent="5.0 (Windows NT 10.0; Win64; x64) AppleWebKit/537.36 (KHTML, like Gecko) Chrome/84.0.4147.89 Safari/537.36" etag="EaHkfiekcyZmE3mzhx7e" version="13.5.8" type="github">
  <diagram id="C5RBs43oDa-KdzZeNtuy" name="Page-1">
    <mxGraphModel dx="1422" dy="713" grid="1" gridSize="10" guides="1" tooltips="1" connect="1" arrows="1" fold="1" page="1" pageScale="1" pageWidth="827" pageHeight="1169" math="0" shadow="0">
      <root>
        <mxCell id="WIyWlLk6GJQsqaUBKTNV-0" />
        <mxCell id="WIyWlLk6GJQsqaUBKTNV-1" parent="WIyWlLk6GJQsqaUBKTNV-0" />
        <mxCell id="WIyWlLk6GJQsqaUBKTNV-2" value="" style="html=1;jettySize=auto;orthogonalLoop=1;fontSize=11;endArrow=block;endFill=0;endSize=8;strokeWidth=1;shadow=0;labelBackgroundColor=none;edgeStyle=orthogonalEdgeStyle;strokeColor=#788AA3;fontColor=#46495D;sketch=1;" parent="WIyWlLk6GJQsqaUBKTNV-1" source="WIyWlLk6GJQsqaUBKTNV-3" target="WIyWlLk6GJQsqaUBKTNV-6" edge="1">
          <mxGeometry relative="1" as="geometry" />
        </mxCell>
        <mxCell id="WIyWlLk6GJQsqaUBKTNV-3" value="Lamp doesn&#39;t work" style="whiteSpace=wrap;html=1;fontSize=12;glass=0;strokeWidth=1;shadow=0;rounded=1;fillColor=#B2C9AB;strokeColor=#788AA3;fontColor=#46495D;sketch=1;" parent="WIyWlLk6GJQsqaUBKTNV-1" vertex="1">
          <mxGeometry x="160" y="80" width="120" height="40" as="geometry" />
        </mxCell>
        <mxCell id="WIyWlLk6GJQsqaUBKTNV-4" value="Yes" style="html=1;jettySize=auto;orthogonalLoop=1;fontSize=11;endArrow=block;endFill=0;endSize=8;strokeWidth=1;shadow=0;labelBackgroundColor=none;edgeStyle=orthogonalEdgeStyle;strokeColor=#788AA3;fontColor=#46495D;sketch=1;" parent="WIyWlLk6GJQsqaUBKTNV-1" source="WIyWlLk6GJQsqaUBKTNV-6" target="WIyWlLk6GJQsqaUBKTNV-10" edge="1">
          <mxGeometry y="20" relative="1" as="geometry">
            <mxPoint as="offset" />
          </mxGeometry>
        </mxCell>
        <mxCell id="WIyWlLk6GJQsqaUBKTNV-5" value="No" style="edgeStyle=orthogonalEdgeStyle;html=1;jettySize=auto;orthogonalLoop=1;fontSize=11;endArrow=block;endFill=0;endSize=8;strokeWidth=1;shadow=0;labelBackgroundColor=none;strokeColor=#788AA3;fontColor=#46495D;sketch=1;" parent="WIyWlLk6GJQsqaUBKTNV-1" source="WIyWlLk6GJQsqaUBKTNV-6" target="WIyWlLk6GJQsqaUBKTNV-7" edge="1">
          <mxGeometry y="10" relative="1" as="geometry">
            <mxPoint as="offset" />
          </mxGeometry>
        </mxCell>
        <mxCell id="WIyWlLk6GJQsqaUBKTNV-6" value="Lamp&lt;br&gt;plugged in?" style="rhombus;whiteSpace=wrap;html=1;shadow=0;fontFamily=Helvetica;fontSize=12;align=center;strokeWidth=1;spacing=6;spacingTop=-4;rounded=1;fillColor=#B2C9AB;strokeColor=#788AA3;fontColor=#46495D;sketch=1;" parent="WIyWlLk6GJQsqaUBKTNV-1" vertex="1">
          <mxGeometry x="170" y="170" width="100" height="80" as="geometry" />
        </mxCell>
        <mxCell id="WIyWlLk6GJQsqaUBKTNV-7" value="Plug in lamp" style="whiteSpace=wrap;html=1;fontSize=12;glass=0;strokeWidth=1;shadow=0;rounded=1;fillColor=#B2C9AB;strokeColor=#788AA3;fontColor=#46495D;sketch=1;" parent="WIyWlLk6GJQsqaUBKTNV-1" vertex="1">
          <mxGeometry x="320" y="190" width="120" height="40" as="geometry" />
        </mxCell>
        <mxCell id="WIyWlLk6GJQsqaUBKTNV-8" value="No" style="html=1;jettySize=auto;orthogonalLoop=1;fontSize=11;endArrow=block;endFill=0;endSize=8;strokeWidth=1;shadow=0;labelBackgroundColor=none;edgeStyle=orthogonalEdgeStyle;strokeColor=#788AA3;fontColor=#46495D;sketch=1;" parent="WIyWlLk6GJQsqaUBKTNV-1" source="WIyWlLk6GJQsqaUBKTNV-10" target="WIyWlLk6GJQsqaUBKTNV-11" edge="1">
          <mxGeometry x="0.3333" y="20" relative="1" as="geometry">
            <mxPoint as="offset" />
          </mxGeometry>
        </mxCell>
        <mxCell id="WIyWlLk6GJQsqaUBKTNV-9" value="Yes" style="edgeStyle=orthogonalEdgeStyle;html=1;jettySize=auto;orthogonalLoop=1;fontSize=11;endArrow=block;endFill=0;endSize=8;strokeWidth=1;shadow=0;labelBackgroundColor=none;strokeColor=#788AA3;fontColor=#46495D;sketch=1;" parent="WIyWlLk6GJQsqaUBKTNV-1" source="WIyWlLk6GJQsqaUBKTNV-10" target="WIyWlLk6GJQsqaUBKTNV-12" edge="1">
          <mxGeometry y="10" relative="1" as="geometry">
            <mxPoint as="offset" />
          </mxGeometry>
        </mxCell>
        <mxCell id="WIyWlLk6GJQsqaUBKTNV-10" value="Bulb&lt;br&gt;burned out?" style="rhombus;whiteSpace=wrap;html=1;shadow=0;fontFamily=Helvetica;fontSize=12;align=center;strokeWidth=1;spacing=6;spacingTop=-4;rounded=1;fillColor=#B2C9AB;strokeColor=#788AA3;fontColor=#46495D;sketch=1;" parent="WIyWlLk6GJQsqaUBKTNV-1" vertex="1">
          <mxGeometry x="170" y="290" width="100" height="80" as="geometry" />
        </mxCell>
        <mxCell id="WIyWlLk6GJQsqaUBKTNV-11" value="Repair Lamp" style="whiteSpace=wrap;html=1;fontSize=12;glass=0;strokeWidth=1;shadow=0;rounded=1;fillColor=#B2C9AB;strokeColor=#788AA3;fontColor=#46495D;sketch=1;" parent="WIyWlLk6GJQsqaUBKTNV-1" vertex="1">
          <mxGeometry x="160" y="430" width="120" height="40" as="geometry" />
        </mxCell>
        <mxCell id="WIyWlLk6GJQsqaUBKTNV-12" value="Replace Bulb" style="whiteSpace=wrap;html=1;fontSize=12;glass=0;strokeWidth=1;shadow=0;rounded=1;fillColor=#B2C9AB;strokeColor=#788AA3;fontColor=#46495D;sketch=1;" parent="WIyWlLk6GJQsqaUBKTNV-1" vertex="1">
          <mxGeometry x="320" y="310" width="120" height="40" as="geometry" />
        </mxCell>
        <mxCell id="SUOSq--2vfhcmtvePXFJ-0" value="&lt;h2&gt;&lt;font&gt;so amazing&lt;/font&gt;&lt;/h2&gt;" style="whiteSpace=wrap;html=1;strokeWidth=2;fillWeight=4;hachureGap=8;hachureAngle=45;fillColor=#b1ddf0;rounded=1;strokeColor=#10739e;sketch=1;fontFamily=Comic Sans MS;" vertex="1" parent="WIyWlLk6GJQsqaUBKTNV-1">
          <mxGeometry x="510" y="90" width="120" height="60" as="geometry" />
        </mxCell>
        <mxCell id="SUOSq--2vfhcmtvePXFJ-1" value="Table" style="shape=table;html=1;whiteSpace=wrap;startSize=30;container=1;collapsible=0;childLayout=tableLayout;fontStyle=1;align=center;rounded=1;fillColor=#B2C9AB;strokeColor=#788AA3;fontColor=#46495D;sketch=1;" vertex="1" parent="WIyWlLk6GJQsqaUBKTNV-1">
          <mxGeometry x="590" y="240" width="180" height="150" as="geometry" />
        </mxCell>
        <mxCell id="SUOSq--2vfhcmtvePXFJ-2" value="" style="shape=partialRectangle;html=1;whiteSpace=wrap;collapsible=0;dropTarget=0;pointerEvents=0;fillColor=none;top=0;left=0;bottom=0;right=0;points=[[0,0.5],[1,0.5]];portConstraint=eastwest;rounded=1;strokeColor=#788AA3;fontColor=#46495D;sketch=1;" vertex="1" parent="SUOSq--2vfhcmtvePXFJ-1">
          <mxGeometry y="30" width="180" height="40" as="geometry" />
        </mxCell>
        <mxCell id="SUOSq--2vfhcmtvePXFJ-3" value="" style="shape=partialRectangle;html=1;whiteSpace=wrap;connectable=0;fillColor=none;top=0;left=0;bottom=0;right=0;overflow=hidden;rounded=1;strokeColor=#788AA3;fontColor=#46495D;sketch=1;" vertex="1" parent="SUOSq--2vfhcmtvePXFJ-2">
          <mxGeometry width="60" height="40" as="geometry" />
        </mxCell>
        <mxCell id="SUOSq--2vfhcmtvePXFJ-4" value="" style="shape=partialRectangle;html=1;whiteSpace=wrap;connectable=0;fillColor=none;top=0;left=0;bottom=0;right=0;overflow=hidden;rounded=1;strokeColor=#788AA3;fontColor=#46495D;sketch=1;" vertex="1" parent="SUOSq--2vfhcmtvePXFJ-2">
          <mxGeometry x="60" width="60" height="40" as="geometry" />
        </mxCell>
        <mxCell id="SUOSq--2vfhcmtvePXFJ-5" value="" style="shape=partialRectangle;html=1;whiteSpace=wrap;connectable=0;fillColor=none;top=0;left=0;bottom=0;right=0;overflow=hidden;rounded=1;strokeColor=#788AA3;fontColor=#46495D;sketch=1;" vertex="1" parent="SUOSq--2vfhcmtvePXFJ-2">
          <mxGeometry x="120" width="60" height="40" as="geometry" />
        </mxCell>
        <mxCell id="SUOSq--2vfhcmtvePXFJ-6" value="" style="shape=partialRectangle;html=1;whiteSpace=wrap;collapsible=0;dropTarget=0;pointerEvents=0;fillColor=none;top=0;left=0;bottom=0;right=0;points=[[0,0.5],[1,0.5]];portConstraint=eastwest;rounded=1;strokeColor=#788AA3;fontColor=#46495D;sketch=1;" vertex="1" parent="SUOSq--2vfhcmtvePXFJ-1">
          <mxGeometry y="70" width="180" height="40" as="geometry" />
        </mxCell>
        <mxCell id="SUOSq--2vfhcmtvePXFJ-7" value="" style="shape=partialRectangle;html=1;whiteSpace=wrap;connectable=0;fillColor=none;top=0;left=0;bottom=0;right=0;overflow=hidden;rounded=1;strokeColor=#788AA3;fontColor=#46495D;sketch=1;" vertex="1" parent="SUOSq--2vfhcmtvePXFJ-6">
          <mxGeometry width="60" height="40" as="geometry" />
        </mxCell>
        <mxCell id="SUOSq--2vfhcmtvePXFJ-8" value="" style="shape=partialRectangle;html=1;whiteSpace=wrap;connectable=0;fillColor=none;top=0;left=0;bottom=0;right=0;overflow=hidden;rounded=1;strokeColor=#788AA3;fontColor=#46495D;sketch=1;" vertex="1" parent="SUOSq--2vfhcmtvePXFJ-6">
          <mxGeometry x="60" width="60" height="40" as="geometry" />
        </mxCell>
        <mxCell id="SUOSq--2vfhcmtvePXFJ-9" value="" style="shape=partialRectangle;html=1;whiteSpace=wrap;connectable=0;fillColor=none;top=0;left=0;bottom=0;right=0;overflow=hidden;rounded=1;strokeColor=#788AA3;fontColor=#46495D;sketch=1;" vertex="1" parent="SUOSq--2vfhcmtvePXFJ-6">
          <mxGeometry x="120" width="60" height="40" as="geometry" />
        </mxCell>
        <mxCell id="SUOSq--2vfhcmtvePXFJ-10" value="" style="shape=partialRectangle;html=1;whiteSpace=wrap;collapsible=0;dropTarget=0;pointerEvents=0;fillColor=none;top=0;left=0;bottom=0;right=0;points=[[0,0.5],[1,0.5]];portConstraint=eastwest;rounded=1;strokeColor=#788AA3;fontColor=#46495D;sketch=1;" vertex="1" parent="SUOSq--2vfhcmtvePXFJ-1">
          <mxGeometry y="110" width="180" height="40" as="geometry" />
        </mxCell>
        <mxCell id="SUOSq--2vfhcmtvePXFJ-11" value="" style="shape=partialRectangle;html=1;whiteSpace=wrap;connectable=0;fillColor=none;top=0;left=0;bottom=0;right=0;overflow=hidden;rounded=1;strokeColor=#788AA3;fontColor=#46495D;sketch=1;" vertex="1" parent="SUOSq--2vfhcmtvePXFJ-10">
          <mxGeometry width="60" height="40" as="geometry" />
        </mxCell>
        <mxCell id="SUOSq--2vfhcmtvePXFJ-12" value="" style="shape=partialRectangle;html=1;whiteSpace=wrap;connectable=0;fillColor=none;top=0;left=0;bottom=0;right=0;overflow=hidden;rounded=1;strokeColor=#788AA3;fontColor=#46495D;sketch=1;" vertex="1" parent="SUOSq--2vfhcmtvePXFJ-10">
          <mxGeometry x="60" width="60" height="40" as="geometry" />
        </mxCell>
        <mxCell id="SUOSq--2vfhcmtvePXFJ-13" value="" style="shape=partialRectangle;html=1;whiteSpace=wrap;connectable=0;fillColor=none;top=0;left=0;bottom=0;right=0;overflow=hidden;rounded=1;strokeColor=#788AA3;fontColor=#46495D;sketch=1;" vertex="1" parent="SUOSq--2vfhcmtvePXFJ-10">
          <mxGeometry x="120" width="60" height="40" as="geometry" />
        </mxCell>
        <mxCell id="SUOSq--2vfhcmtvePXFJ-14" value="&lt;h2&gt;&lt;font face=&quot;Garamond&quot;&gt;中文怎么样&lt;/font&gt;&lt;/h2&gt;" style="whiteSpace=wrap;html=1;strokeWidth=2;fillWeight=4;hachureGap=8;hachureAngle=45;fillColor=#b1ddf0;rounded=1;strokeColor=#10739e;sketch=1;fontFamily=Comic Sans MS;" vertex="1" parent="WIyWlLk6GJQsqaUBKTNV-1">
          <mxGeometry x="470" y="440" width="120" height="60" as="geometry" />
        </mxCell>
      </root>
    </mxGraphModel>
  </diagram>
</mxfile>
